<?xml version="1.0" encoding="utf-8"?>
<!-- Generator: Adobe Illustrator 26.0.1, SVG Export Plug-In . SVG Version: 6.00 Build 0)  -->
<svg version="1.1" id="Layer_1" xmlns="http://www.w3.org/2000/svg" xmlns:xlink="http://www.w3.org/1999/xlink" x="0px" y="0px"
	 viewBox="0 0 1025 1024" style="enable-background:new 0 0 1025 1024;" xml:space="preserve">
<style type="text/css">
	.st0{fill:#A9BEC9;}
</style>
<path class="st0" d="M707.6,389.3c-12.9-6.1-18.9-14.3-17.7-24.6s5.5-18.4,13.1-24.6c2.3-1.5,9.7-7.4,22.3-17.7
	c12.5-10.3,28-22.7,46.3-37.1c-32-36.5-70.1-65.3-114.3-86.2c-44.1-20.9-92.1-31.4-143.9-31.4c-48,0-93,9-134.9,26.8
	c-41.9,17.9-78.5,42.4-109.8,73.7c-31.2,31.2-55.8,67.7-73.7,109.6S168,464.6,168,512.6c0,47.2,9,91.7,26.9,133.6
	s42.5,78.4,73.7,109.6c31.2,31.2,67.8,55.7,109.8,73.6s86.8,26.8,134.9,26.8c39.6,0,77.2-6.3,112.6-18.8
	c35.5-12.5,67.8-30.3,97.2-53.1c29.3-22.8,54.5-49.7,75.5-80.5c20.9-30.8,36.4-64.5,46.3-101.1c5.3-17.5,15.2-31.9,29.7-43.4
	c14.5-11.4,31.6-17.2,51.5-17.2c23.6,0,43.6,8.4,60,25.2c16.4,16.7,24.6,36.5,24.6,59.3c0,10.6-1.9,20.9-5.7,30.8
	c-16,53.2-39.6,102.3-70.8,147.3s-68.4,83.5-111.5,115.8c-43.1,32.3-90.9,57.7-143.5,75.9c-52.5,18.4-107.8,27.5-165.7,27.5
	c-70.8,0-137.5-13.3-200.1-39.9c-62.5-26.6-116.8-63.2-162.9-109.6S67.6,773.8,40.6,711.8S0,583.4,0,512.6s13.5-137.3,40.6-199.8
	c27.1-62.4,63.6-116.6,109.8-162.7c46.1-46,100.4-82.6,162.9-109.6S442.4,0,513.3,0c78.5,0,151.3,16.2,218.4,48.5
	s124.2,76.3,171.5,131.8c17.5-12.9,32.2-24.2,44-33.7c11.8-9.5,19.3-15.4,22.3-17.7c4.6-3.8,9.5-6.7,14.8-8.6s10.3-1.9,14.8,0
	s8.6,5.9,12,12s5.9,15.2,7.4,27.4c0.8,6.8,1.5,18.4,2.3,34.8s1.5,35.4,2.3,57.1s1.2,44.2,1.2,67.3c0,23.2-0.4,45.1-1.2,65.7
	c-0.8,25.9-6.8,44.5-18.3,55.9c-6.1,6.1-15.3,9.6-27.5,10.4c-12.2,0.8-25.2-0.4-38.8-3.5c-20.6-4.5-43.3-9.5-68-14.8
	c-24.8-5.3-48.4-10.8-70.8-16.6c-22.5-5.7-42.3-11.1-59.5-16C723.1,395.2,712.2,391.6,707.6,389.3L707.6,389.3L707.6,389.3
	L707.6,389.3z"/>
</svg>
