<?xml version="1.0" encoding="utf-8"?>
<!-- Generator: Adobe Illustrator 26.0.1, SVG Export Plug-In . SVG Version: 6.00 Build 0)  -->
<svg version="1.1" id="Layer_1" xmlns="http://www.w3.org/2000/svg" xmlns:xlink="http://www.w3.org/1999/xlink" x="0px" y="0px"
	 viewBox="0 0 200 200" style="enable-background:new 0 0 200 200;" xml:space="preserve">
<style type="text/css">
	.st0{display:none;}
	.st1{display:inline;}
</style>
<polygon points="198.96,44.21 156.54,1.79 100.25,58.07 43.96,1.79 1.54,44.21 57.82,100.5 1.54,156.79 43.96,199.21 100.25,142.93 
	156.54,199.21 198.96,156.79 142.68,100.5 "/>
<g class="st0">
	<path class="st1" d="M100,60c22.06,0,40,17.94,40,40s-17.94,40-40,40s-40-17.94-40-40S77.94,60,100,60 M100,0
		C44.77,0,0,44.77,0,100s44.77,100,100,100s100-44.77,100-100S155.23,0,100,0L100,0z"/>
</g>
</svg>
